<?xml version="1.0" encoding="iso-8859-1"?>
<!-- Generator: Adobe Illustrator 16.0.0, SVG Export Plug-In . SVG Version: 6.00 Build 0)  -->
<!DOCTYPE svg PUBLIC "-//W3C//DTD SVG 1.1//EN" "http://www.w3.org/Graphics/SVG/1.1/DTD/svg11.dtd">
<svg version="1.1" id="Capa_1" xmlns="http://www.w3.org/2000/svg" xmlns:xlink="http://www.w3.org/1999/xlink" x="0px" y="0px"
	 width="52.25px" height="52.25px" viewBox="0 0 52.25 52.25" style="enable-background:new 0 0 52.25 52.25;" xml:space="preserve"
	>
<g>
	<g>
		<circle cx="20.442" cy="21.815" r="2.402"/>
		<circle cx="35.791" cy="21.815" r="2.402"/>
		<path d="M6.689,11.642c0.303,0,0.609-0.087,0.878-0.271l12.495-8.517c0.713-0.485,0.897-1.458,0.411-2.171
			c-0.485-0.713-1.458-0.896-2.17-0.412L5.808,8.788c-0.713,0.486-0.897,1.458-0.412,2.171C5.7,11.403,6.19,11.642,6.689,11.642z"/>
		<path d="M32.136,5.103l12.727,6.374c0.225,0.113,0.464,0.166,0.698,0.166c0.573,0,1.124-0.317,1.398-0.864
			c0.386-0.771,0.074-1.71-0.697-2.097L33.535,2.308c-0.772-0.388-1.711-0.074-2.097,0.697C31.052,3.775,31.364,4.716,32.136,5.103z
			"/>
		<path d="M12.011,34.796c0.445,0.366,0.89,1.087,0.986,1.654c1.525,9.018,7.995,15.8,15.768,15.8c0.027,0,0.053-0.004,0.08-0.005
			c0.03,0,0.058,0.005,0.088,0.005c8.829-0.123,15.961-8.964,15.961-19.863c0-1.457-0.131-2.874-0.375-4.24
			c-0.102-0.566-0.012-1.445,0.179-1.989c0.5-1.42,0.781-2.997,0.781-4.661c0-6.245-3.907-11.306-8.728-11.306
			c-1.753,0-3.386,0.672-4.753,1.826c-0.439,0.371-1.214,0.63-1.787,0.572c-0.422-0.042-0.848-0.067-1.278-0.067
			c-0.032,0-0.063,0.004-0.095,0.004c-0.025,0-0.049-0.004-0.073-0.004c-0.188,0-0.372,0.027-0.561,0.036
			c-0.216,0.012-0.432,0.018-0.646,0.04c-0.193,0.018-0.387,0.041-0.578,0.068c-0.318,0.044-0.838-0.292-1.201-0.739
			c-2.018-2.487-4.738-4.02-7.743-4.02c-6.218,0-11.259,6.531-11.259,14.586C6.778,27.67,8.869,32.211,12.011,34.796z
			 M36.752,12.203c3.963,0,7.174,4.162,7.174,9.293c0,5.132-3.211,9.293-7.174,9.293c-3.961,0-7.172-4.161-7.172-9.293
			C29.579,16.363,32.791,12.203,36.752,12.203z M32.833,41.531c0.069,0.03,0.952,0.387,1.448-0.254
			c0.353-0.456,1.008-0.538,1.462-0.185s0.536,1.008,0.184,1.462c-0.699,0.9-1.631,1.178-2.457,1.178
			c-0.611,0-1.165-0.151-1.524-0.316c-5.428-2.625-7.7-2.253-8.572-1.799c-0.693,0.361-0.802,0.927-0.812,0.989
			c-0.089,0.558-0.606,0.956-1.169,0.881c-0.561-0.074-0.959-0.568-0.899-1.13c0.018-0.166,0.222-1.649,1.823-2.536
			C24.475,38.625,28.01,39.201,32.833,41.531z M27.292,21.989c0,6.578-4.116,11.909-9.192,11.909c-5.077,0-9.192-5.332-9.192-11.909
			c0-6.577,4.116-11.91,9.192-11.91C23.177,10.079,27.292,15.412,27.292,21.989z"/>
	</g>
</g>
<g>
</g>
<g>
</g>
<g>
</g>
<g>
</g>
<g>
</g>
<g>
</g>
<g>
</g>
<g>
</g>
<g>
</g>
<g>
</g>
<g>
</g>
<g>
</g>
<g>
</g>
<g>
</g>
<g>
</g>
</svg>
